<?xml version="1.0" standalone="no"?>
<!DOCTYPE svg PUBLIC "-//W3C//DTD SVG 1.1//EN" "http://www.w3.org/Graphics/SVG/1.1/DTD/svg11.dtd">
<svg xmlns="http://www.w3.org/2000/svg">
<metadata>Generated by Fontastic.me</metadata>
<defs>
<font id="clickyabdashboard" horiz-adv-x="512">
<font-face font-family="clickyabdashboard" units-per-em="512" ascent="480" descent="-32"/>
<missing-glyph horiz-adv-x="512" />

<glyph glyph-name="access-management" unicode="&#57344;" d="M256 219c61 0 110 50 110 110l0 73c0 61-49 110-110 110-61 0-110-49-110-110l0-73c0-60 49-110 110-110z m-73 183c0 41 33 73 73 73 40 0 73-32 73-73l0-73c0-40-33-73-73-73-40 0-73 33-73 73z m219-183c61 0 110-49 110-109 0-16-3-30-9-43 6-16 9-32 9-49 0-10-8-18-18-18l-476 0c-10 0-18 8-18 18 0 63 40 118 99 138l78 26c2 1 4 1 6 1l138 0c20 22 49 36 81 36z m0-36c-24 0-45-12-58-29 0 0 0 0 0-1-2-2-4-5-6-9 0 0 0-1-1-2-1-2-2-5-3-8-1-1-1-3-2-5-1-2-1-4-2-6 0-4-1-9-1-13 0-41 33-73 73-73 5 0 9 0 13 1 1 0 3 0 4 1 3 0 6 1 9 2 2 1 4 2 5 3 3 1 5 2 8 4 2 1 4 3 6 4 1 1 1 1 2 2 7 6 13 14 18 22 0 1 0 1 0 1 5 10 8 21 8 33 0 40-32 73-73 73z m-364-146l283 0c-1 0-1 0-1 1-4 4-7 8-10 13-1 1-1 2-2 3-3 4-5 10-8 15 0 1 0 2 0 2-2 6-4 12-5 18 0 0-1 1-1 1-1 7-1 13-1 20 0 6 0 11 1 17 0 1 0 1 0 2 1 6 3 12 5 17l-113 0-75-25c-39-13-66-45-73-84z m328 54c-10 0-19 9-19 19 0 10 9 18 19 18l18 0 0 18c0 10 8 19 18 19 10 0 19-9 19-19l0-18 18 0c10 0 18-8 18-18 0-10-8-19-18-19l-18 0 0-18c0-10-9-18-19-18-10 0-18 8-18 18l0 18z"/>
<glyph glyph-name="addfund" unicode="&#57345;" d="M494 448l-476 0c-10 0-18-8-18-18l0-329c0-11 8-19 18-19l476 0c10 0 18 8 18 19l0 329c0 10-8 18-18 18z m-108-329l-260 0c-7 46-44 82-89 90l0 113c45 7 82 44 89 89l260 0c7-45 44-82 89-89l0-113c-45-8-82-44-89-90z m89 240c-25 7-45 27-52 52l52 0z m-386 52c-7-25-27-45-52-52l0 52z m-52-240c25-7 45-27 52-52l-52 0z m386-52c7 25 27 45 52 52l0-52z m-179 218c-13 0-24-11-24-24l0-12c0-13 11-24 24-24l24 0c26 0 47-21 47-47l0-12c0-26-21-47-47-47l0-12c0-7-6-12-12-12-7 0-12 5-12 12l0 12c-26 0-48 21-48 47 0 7 6 12 12 12 7 0 12-5 12-12 0-13 11-24 24-24l24 0c13 0 23 11 23 24l0 12c0 13-10 24-23 24l-24 0c-26 0-48 21-48 47l0 12c0 26 22 48 48 48l0 11c0 7 5 12 12 12 6 0 12-5 12-12l0-11c26 0 47-22 47-48 0-6-5-12-12-12-6 0-12 6-12 12 0 13-10 24-23 24z"/>
<glyph glyph-name="alert" unicode="&#57346;" d="M256 147c-16 0-29-12-29-28 0-16 13-29 29-29 16 0 29 13 29 29 0 16-13 28-29 28z m-10 21l20 0c3 0 5 2 5 6l12 162c0 3-2 6-6 6l-42 0c-4 0-6-3-6-6l12-162c0-4 2-6 5-6z m257-63l-201 348c-10 17-27 27-46 27-19 0-37-10-46-27l-203-351c-9-16-9-37 0-53 10-16 27-27 46-27l406 0c0 0 0 0 0 0l0 0c29 0 53 24 53 53 0 11-3 21-9 30z m-44-59l-406 0c-10 0-20 6-25 15-6 9-6 20 0 29l202 352c6 9 15 14 26 14 10 0 20-5 25-14l202-349c0-1 0-1 0-1 4-5 5-11 5-17 0-16-13-29-29-29z"/>
<glyph glyph-name="analytics" unicode="&#57347;" d="M448 448c-35 0-64-29-64-64 0-15 5-28 13-39l-98-154c-3 1-7 1-11 1-4 0-8 0-12-1l-48 76c8 10 12 23 12 37 0 35-29 64-64 64-35 0-64-29-64-64 0-14 4-27 12-37l-48-76c-4 1-8 1-12 1-35 0-64-29-64-64 0-35 29-64 64-64 35 0 64 29 64 64 0 14-4 27-12 37l48 76c4-1 8-1 12-1 4 0 8 0 12 1l48-76c-8-10-12-23-12-37 0-35 29-64 64-64 35 0 64 29 64 64 0 14-5 27-12 37l99 156c3-1 6-1 9-1 35 0 64 29 64 64 0 35-29 64-64 64z"/>
<glyph glyph-name="archive" unicode="&#57348;" d="M501 259l-69 158c-8 17-29 31-48 31l-256 0c-19 0-40-14-48-31l-69-158c-6-15-11-38-11-54l0-103c0-21 17-38 38-38l436 0c21 0 38 17 38 38l0 103c0 16-5 39-11 54z m-397 148c3 8 15 15 24 15l256 0c9 0 21-7 24-15l69-158c1-2 2-4 2-6-1 0-3 0-5 0l-154 0c-7 0-13-6-13-13l0-12c0-29-23-52-51-52-28 0-51 23-51 52l0 12c0 7-6 13-13 13l-154 0c-2 0-4 0-5 0 0 2 1 4 2 6z"/>
<glyph glyph-name="arrowdown-2" unicode="&#57349;" d="M384 128l-96 0 0 384-64 0 0-384-96 0 128-128z"/>
<glyph glyph-name="arrowleft-4" unicode="&#57350;" d="M493 274l-427 0 180 179c8 8 8 20 0 28-8 7-20 7-27 0l-213-213c-1-1-2-2-3-3-1-2-1-3-1-3-1-1-1-1-1-2 0-1 0-1-1-2 0-1 0-3 0-4 0-1 0-3 0-4 1-1 1-2 1-2 1-2 2-3 2-4 1-2 2-3 3-4l212-212c4-4 9-6 14-6 5 0 10 2 14 6 8 7 8 20 0 27l-180 180 427 0c10 0 19 8 19 19 0 11-9 20-19 20z"/>
<glyph glyph-name="arrowlefts" unicode="&#57351;" d="M310 115l-134 134c-2 2-3 5-3 7 0 3 1 5 3 7l134 134c2 2 4 3 7 3 2 0 5-1 6-3l15-14c2-2 3-4 3-7 0-2-1-5-3-7l-114-113 114-113c2-2 3-5 3-7 0-3-1-5-3-7l-15-14c-1-2-4-3-6-3-3 0-5 1-7 3z"/>
<glyph glyph-name="arrowright-4" unicode="&#57352;" d="M19 274l427 0-180 179c-8 8-8 20 0 28 8 7 20 7 27 0l213-213c1-1 2-2 3-3 1-2 1-3 1-3 1-1 1-1 1-2 0-1 0-1 1-2 0-1 0-3 0-4 0-1 0-3 0-4-1-1-1-2-1-2-1-2-2-3-2-4-1-2-2-3-3-4l-212-212c-4-4-9-6-14-6-5 0-10 2-14 6-8 7-8 20 0 27l180 180-427 0c-10 0-19 8-19 19 0 11 9 20 19 20z"/>
<glyph glyph-name="arrowup-2" unicode="&#57353;" d="M384 384l-96 0 0-384-64 0 0 384-96 0 128 128z"/>
<glyph glyph-name="budget" unicode="&#57354;" d="M256 512c-141 0-256-115-256-256 0-141 115-256 256-256 141 0 256 115 256 256 0 141-115 256-256 256z m0-480c-124 0-224 100-224 224 0 124 100 224 224 224 124 0 224-100 224-224 0-124-100-224-224-224z m12 254l0 65c11-5 18-14 20-27l42 6c-3 16-9 30-20 40-10 9-24 15-42 17l0 17-24 0 0-17c-19-1-34-9-45-21-11-12-17-27-17-45 0-18 5-33 15-46 10-12 26-22 47-28l0-69c-6 3-11 7-16 14-5 6-8 14-10 23l-43-5c4-22 11-39 23-50 12-12 27-19 46-22l0-30 24 0 0 31c22 3 39 12 51 25 12 14 18 31 18 51 0 17-5 32-15 43-9 12-27 21-54 28z m-24 8c-7 3-12 7-16 12-3 5-5 11-5 17 0 6 2 12 6 17 4 5 9 9 15 11z m45-107c-6-6-12-10-21-11l0 64c10-3 17-7 22-12 4-6 6-12 6-19 0-9-2-16-7-22z"/>
<glyph glyph-name="calendar" unicode="&#57355;" d="M467 486l-89 0 0 9c0 9-7 17-17 17-9 0-17-7-17-17l0-9-171 0 0 9c0 9-8 17-18 17-9 0-17-7-17-17l0-9-91 0c-15 0-25-10-25-25l0-437c0-13 10-24 25-24l418 0c15 0 25 11 25 24l0 437c1 14-9 25-23 25z m-410-34l82 0 0-9c0-9 8-17 18-17 9 0 17 7 17 17l0 9 171 0 0-9c0-9 7-17 17-17 9 0 18 7 18 17l0 9 78 0 0-72-400 0 0 72z m400-417l-399 0 0 311 399 0z m-331 230l51 0 0-51-51 0z m106 0l51 0 0-51-51 0z m106 0l52 0 0-51-52 0z m-212-100l51 0 0-52-51 0z m106 0l51 0 0-52-51 0z m106 0l52 0 0-52-52 0z"/>
<glyph glyph-name="mobile-campaign-outline" unicode="&#57356;" d="M255 34c13 0 25 12 25 25 0 14-12 26-25 26-14 0-25-12-25-26 0-13 11-25 25-25z m0 39c7 0 14-6 14-14 0-7-7-13-14-13-8 0-14 6-14 13 0 8 6 14 14 14z m125 439l-251 0c-18 0-33-15-33-33l0-446c0-18 15-33 33-33l251 0c18 0 33 15 33 33l0 446c0 18-15 33-33 33z m22-479c0-12-10-22-22-22l-251 0c-12 0-22 10-22 22l0 68 295 0z m0 79l-295 0 0 325 295 0z m0 336l-295 0 0 31c0 12 10 22 22 22l251 0c12 0 22-10 22-22l0-31z m-93 26c0-3-2-5-5-5l-99 0c-3 0-5 2-5 5 0 3 2 6 5 6l99 0c3 0 5-3 5-6z"/>
<glyph glyph-name="browser-campaign-outline" unicode="&#57357;" d="M80 410c0-4-4-8-9-8-4 0-8 4-8 8 0 5 4 9 8 9 5 0 9-4 9-9z m-37 9c-5 0-9-4-9-9 0-4 4-8 9-8 4 0 8 4 8 8 0 5-3 9-8 9z m469-5l0-336c0-19-15-34-34-34l-444 0c-19 0-34 15-34 34l0 336c0 19 15 34 34 34l444 0c19 0 34-15 34-34z m-11-41l-490 0 0-295c0-12 11-23 23-23l444 0c12 0 23 11 23 23z m0 41c0 12-11 23-23 23l-444 0c-12 0-23-11-23-23l0-29 490 0z m-401 5c-5 0-9-4-9-9 0-4 4-8 9-8 4 0 8 4 8 8 0 5-3 9-8 9z"/>
<glyph glyph-name="campaign" unicode="&#57358;" d="M498 512l-484 0c-8 0-14-6-14-14l0-74 512 0 0 74c0 8-6 14-14 14z m-436-62c-5-5-11-7-18-7-7 0-13 2-18 7-5 5-7 12-7 18 0 7 2 14 7 19 9 9 27 9 36 0 5-5 8-12 8-19 0-6-3-13-8-18z m81 0c-5-4-11-7-18-7-7 0-14 3-18 7-5 5-8 12-8 18 0 7 3 14 8 19 9 9 26 9 36-1 5-4 7-11 7-18 0-6-2-13-7-18z m80 0c-4-5-11-7-17-7-7 0-14 2-18 7-6 5-8 12-8 19 0 6 2 13 7 17 10 10 27 10 36 1 6-5 8-12 8-18 0-7-3-14-8-19z m-223-348l0 298 512 0 0-298c0-8-6-15-14-15l-23 0c5 9 6 20 4 30l-22 87c-4 17-20 29-37 29-4 0-7 0-10-1l-3-1c-7 7-17 11-27 11-3 0-6-1-9-1l-50-13-8 33c-5 17-20 29-38 29-3 0-6-1-9-2l-35-8c-10-3-18-9-24-18-5-8-6-19-4-29l0 0 0 0 17-67-33-8c-10-3-18-9-23-18 0 0 0 0 0 0-6-9-7-19-5-29l6-24-151 0c-8 0-14 7-14 15z m422 93l22-87c0-1 0-2 0-2-1-1-1-1-2-1l-15-4 8-32c0-1 0-2 0-2 0-1-1-1-2-1l-15-4 9-32c0-1 0-2-1-2 0-1-1-2-1-2l-18-4c-1 0-3 0-3 2l-4 15-12-3 4-15c0-1 0-2-1-2 0-1-1-1-1-1l-18-5c0 0 0 0 0 0l-52-13c-1 0-1 0-1 0-1 0-2 1-3 2l-3 15-15-4c-2 0-3 1-3 2l-4 15-15-4c-2 0-3 1-3 2l-4 15-15-4c-1 0-3 1-3 2l-8 32-15-3c-2-1-3 0-3 2l-4 15-15-4c-1-1-3 0-3 2l-9 35c0 0 0 1 0 2 1 0 1 1 2 1l35 9c1 0 3-1 3-2l4-15 15 3c1 1 3 0 3-1l4-15 12 3-34 137c0 1 0 1 0 2 0 0 1 1 2 1l35 9c1 0 2-1 3-2l25-102 13 3-8 32c0 1 0 2 0 2 0 1 1 1 2 1l35 9c1 1 2 0 3-2l8-32 12 3-8 32c0 1 0 2 1 2 0 1 0 1 1 2l18 4c1 0 2-1 3-2l8-32 12 3-3 15c-1 0 0 1 0 2 0 0 1 1 2 1l17 4c1 1 3 0 3-2z"/>
<glyph glyph-name="checked" unicode="&#57362;" d="M168 85c9-9 21-13 32-13 12 0 22 4 31 13l267 254c18 16 19 45 1 63-17 18-45 19-63 1l-236-223-122 123c-18 18-46 18-64 0-19-18-19-47 0-65z"/>
<glyph glyph-name="close" unicode="&#57360;" d="M17 16c12-11 27-16 41-16 15 0 30 5 42 16l156 157 156-157c12-11 27-16 42-16 14 0 29 5 41 16 23 23 23 60 0 83l-157 157 157 156c23 23 23 60 0 83-23 23-60 23-83 0l-156-157-156 157c-23 23-60 23-83 0-23-23-23-60 0-83l157-156-157-157c-23-23-23-60 0-83z m0 0c12-11 27-16 41-16 15 0 30 5 42 16l156 157 156-157c12-11 27-16 42-16 14 0 29 5 41 16 23 23 23 60 0 83l-157 157 157 156c23 23 23 60 0 83-23 23-60 23-83 0l-156-157-156 157c-23 23-60 23-83 0-23-23-23-60 0-83l157-156-157-157c-23-23-23-60 0-83z"/>
<glyph glyph-name="closelong" unicode="&#57361;" d="M502 502c-12 13-32 13-45 0l-201-201-201 201c-13 13-33 13-45 0-13-12-13-32 0-45l201-201-201-201c-13-13-13-33 0-46 6-6 14-9 22-9 9 0 17 3 23 9l201 201 201-201c6-6 14-9 23-9 8 0 16 3 22 9 13 13 13 33 0 46l-201 201 201 201c12 13 12 33 0 45z"/>
<glyph glyph-name="communication" unicode="&#57443;" d="M176 151c6-6 6-14 0-19l-82-85c-4-4-9-6-15-6-2 0-5 1-8 2-7 3-13 11-13 19l0 65-17 0c-23 0-41 19-41 42l0 270c0 22 18 41 41 41l430 0c23 0 41-19 41-41l0-270c0-23-18-42-41-42l-236 0c-8 0-14 6-14 14 0 8 6 14 14 14l236 0c8 0 14 6 14 14l0 270c0 7-6 14-14 14l-430 0c-8 0-14-7-14-14l0-270c0-8 6-14 14-14l31 0c8 0 14-6 14-14l0-63 71 72c5 6 14 6 19 1z m-83 206l327 0c7 0 13 6 13 14 0 7-6 13-13 13l-327 0c-8 0-14-6-14-13 0-8 6-14 14-14z m0-70l327 0c7 0 13 6 13 14 0 8-6 14-13 14l-327 0c-8 0-14-6-14-14 0-8 6-14 14-14z m0-70l163 0c8 0 14 6 14 14 0 8-6 14-14 14l-163 0c-8 0-14-6-14-14 0-8 6-14 14-14z"/>
<glyph glyph-name="compass" unicode="&#57442;" d="M356 373l-145-65c0 0 0 0 0 0-1-1-2-1-3-2-1 0-1-1-2-2 0 0 0 0 0 0-1-1-1-2-2-3 0 0 0 0 0 0l-65-145c-2-5-1-11 2-15 3-2 6-3 10-3 1 0 3 0 5 1l145 65 0 0c1 1 2 1 3 2 0 0 1 0 1 1 0 0 1 0 1 1 1 1 1 2 2 3 0 0 0 0 0 0l65 145c2 5 1 11-2 15-4 3-10 4-15 2z m-180-197l44 98 54-54z m116 62l-43 43-11 11 98 44z m-36 274c-141 0-256-115-256-256 0-141 115-256 256-256 141 0 256 115 256 256 0 141-115 256-256 256z m13-486l0 28c0 7-6 13-13 13-7 0-13-6-13-13l0-28c-117 7-210 100-217 217l28 0c7 0 13 6 13 13 0 7-6 13-13 13l-28 0c7 117 100 210 217 217l0-28c0-7 6-13 13-13 7 0 13 6 13 13l0 28c117-7 210-100 217-217l-28 0c-7 0-13-6-13-13 0-7 6-13 13-13l28 0c-7-117-100-210-217-217z"/>
<glyph glyph-name="createuser" unicode="&#57364;" d="M123 133c-36 0-108-21-116-63l-7-39c-1-6 3-12 10-13 0 0 1 0 2 0 5 0 10 4 11 9l7 39c4 24 61 43 93 43 7 0 12 6 12 12 0 7-5 12-12 12z m275-62c-9 40-73 61-117 61-6 0-12-5-12-11 0-7 6-12 12-12 39 0 89-19 94-42l6-40c1-5 6-9 12-9 0 0 1 0 2 0 6 1 10 7 9 13z m-120 103c11 17 26 54 31 68 10 4 16 13 16 24l0 26c0 9-5 18-13 22l0 11c0 29-10 97-110 97-69 0-110-36-110-97l0-11c-8-5-13-13-13-22l0-26c0-11 7-20 16-24 6-14 21-51 32-68l1-2c8-12 24-36 74-36 50 0 66 24 75 36z m-20 13l-1-2c-8-12-17-26-55-26-38 0-47 14-55 26l-1 2c-12 18-31 69-31 70-2 4-7 7-11 7-1 0-2 1-2 2l0 26c0 0 1 1 2 1 6 0 11 6 11 12l0 20c0 33 15 74 87 74 72 0 87-41 87-74l0-20c0-6 5-12 12-12 1 0 1 0 1-1l0-26c0-1 0-2-1-2-5 0-9-3-11-7-6-15-22-55-32-70z m242 212l-69 0 0 69c0 7-6 12-12 12-6 0-12-5-12-12l0-69-70 0c-6 0-11-6-11-12 0-7 5-12 11-12l70 0 0-70c0-6 6-11 12-11 6 0 12 5 12 11l0 70 69 0c7 0 12 5 12 12 0 6-5 12-12 12z"/>
<glyph glyph-name="dashboard" unicode="&#57441;" d="M0 448c0 35 29 64 64 64l108 0c35 0 64-29 64-64l0-108c0-35-29-64-64-64l-108 0c-35 0-64 29-64 64z m0-276c0 35 29 64 64 64l108 0c35 0 64-29 64-64l0-108c0-35-29-64-64-64l-108 0c-35 0-64 29-64 64z m276 276c0 35 29 64 64 64l108 0c35 0 64-29 64-64l0-108c0-35-29-64-64-64l-108 0c-35 0-64 29-64 64z m0-276c0 35 29 64 64 64l108 0c35 0 64-29 64-64l0-108c0-35-29-64-64-64l-108 0c-35 0-64 29-64 64z"/>
<glyph glyph-name="denied" unicode="&#57366;" d="M256 512c-66 0-131-25-181-75-100-100-100-262 0-362 100-100 262-100 362 0 100 100 100 262 0 362-50 50-115 75-181 75z m0-40c50 0 95-14 136-49l-305-304c-72 85-64 209 16 290 43 42 98 63 153 63z m166-78c73-85 67-210-13-290-81-81-206-87-291-14z"/>
<glyph glyph-name="dragdrop-zone" unicode="&#57367;" d="M242 146l17 0 0-27-17 0z m0-63l0 8 17 0 0-24-25 0 0 16z m-68 0l30 0 0-16-30 0z m-60 0l30 0 0-16-30 0z m-59 0l29 0 0-16-29 0z m-39 8l0-8 9 0 0-16-25 0 0 24z m-16 120l16 0 0-30-16 0z m0 60l16 0 0-30-16 0z m0-120l16 0 0-30-16 0z m0 150l0 25 25 0 0-17-9 0 0-8z m52 25l27 0 0-17-27 0z m460-85c0-3 0-6-3-8l-34-33 30-30c2-2 3-4 3-6 0-2-1-4-3-6l-26-26c-3-3-8-3-12 0l-30 31-35-33c-2-2-5-3-8-2-2 0-5 2-5 5l-16 48-114 0 0-8-17 0 0 8-127 0 0 128-8 0 0 17 8 0 0 114c0 2 1 4 2 6 2 1 4 2 6 2l314 0c2 0 4-1 6-2 1-2 2-4 2-6l0-175 61-19c3 0 5-3 6-5z m-381-43l237 0-13 37-132 122c-4 3-8 5-12 4-5 0-9-2-11-5l-69-86z m298 72l0 46-31 26c-8 6-18 7-26 1l-67-45 43-39-8 24c-1 3 0 6 2 8 2 2 5 3 8 2z m0 62l0 100-298 0 0-143 59 74c5 6 12 10 20 11 8 0 15-2 21-8l65-60 69 48c13 8 29 7 40-2z m-133 79c18 0 33-15 33-33 0-19-15-34-33-34-19 0-34 15-34 34 0 18 15 33 34 33z m0-55c11 0 21 10 21 22 0 8-5 16-13 19-8 4-17 2-23-4-7-6-8-16-5-23 3-8 11-14 20-14z"/>
<glyph glyph-name="edit" unicode="&#57368;" d="M394 512l-349-350 117-117 350 349z m-363-376l-31-136 136 31z"/>
<glyph glyph-name="export-report" unicode="&#57369;" d="M387 498c-11 0-20-9-20-19 0-11 9-19 20-19 47 0 85-36 85-82l0-168-125 0-4-14c-1-5-16-56-86-56-72 0-91 55-92 57l-4 13-121 0 0 169c0 45 37 82 85 82 11 0 20 9 20 19 0 10-9 19-20 19-69 0-125-54-125-120l0-259c0-66 56-120 125-120l262 0c69 0 125 54 125 120l0 259c-1 65-57 119-125 119z m0-460l-263 0c-47 0-85 36-85 82l0 52 91 0c15-31 54-71 124-71 70 0 106 41 120 71l94 0 0-52c3-44-34-82-81-82z m-263 331c8 7 20 9 30 2l85-68 0 190c0 10 10 19 20 19 11 0 20-9 20-19l0-188 85 67c8 7 22 6 28-2 7-8 6-21-2-27l-117-93c-2-2-2-2-2-2-1 0-1-1-2-1 0 0-2 0-2 0 0 0-1 0-1 0-1 0-1 0-1 0 0 0-2 0-2 0-1 0-1 0-1 0-1 0-3 0-4 0-1 0-3 0-4 0-1 0-1 0-1 0 0 0-2 0-2 0-1 0-1 0-1 0 0 0-1 0-1 0 0 0-2 0-2 0-1 0-1 1-2 1-2 0-2 0-2 0l-117 94c-8 6-9 19-2 27z"/>
<glyph glyph-name="extensions-gif" unicode="&#57370;" d="M459 304l0 79c0 0 0 0 0 0 0 1 0 1 0 2 0 0 0 0 0 0 0 0-1 1-1 1 0 0 0 0 0 1 0 0 0 0 0 1-1 0-1 0-1 0 0 0 0 1-1 1l-118 120c0 0 0 0 0 0 0 0 0 0 0 0-1 1-1 1-2 1 0 0 0 0 0 1 0 0-1 0-1 0 0 0 0 0 0 0-1 1-1 1-2 1 0 0 0 0 0 0-1 0-1 0-2 0 0 0 0 0 0 0l-261 0c-5 0-9-4-9-9l0-199-29 0 0-203 29 0 0-92c0-5 4-9 9-9l380 0c5 0 9 4 9 9l0 92 28 0 0 203z m-119 177l88-89-88 0z m-211-313c5 0 9 1 11 2l0 20-15 0 0 17 36 0 0-51c-7-2-20-5-32-5-18 0-31 4-40 13-8 8-13 21-13 35 0 32 23 50 55 50 12 0 22-2 27-5l-5-17c-5 2-12 4-22 4-19 0-32-10-32-31 0-20 12-32 30-32z m312-150l-362 0 0 83 362 0z m-256 134l0 96 22 0 0-96-22 0z m104 56l0-18-35 0 0-38-21 0 0 96 58 0 0-18-37 0 0-22z m152 96l-362 0 0 190 243 0 0-111c0-5 4-9 9-9l110 0z"/>
<glyph glyph-name="extensions-jpg" unicode="&#57371;" d="M459 304l0 0 28 0 0-203-28 0 0-92c0-5-4-9-9-9l-380 0c-5 0-9 4-9 9l0 92-29 0 0 203 29 0 0 199c0 5 4 9 9 9l261 0c0 0 0 0 0 0 1 0 1 0 2 0 0 0 0 0 0 0 1 0 1 0 2-1 0 0 0 0 0 0 0 0 1 0 1 0 0 0 0-1 0-1 1 0 1 0 2-1 0 0 0 0 0 0 0 0 0 0 0 0l118-120c1 0 1-1 1-1 0 0 0 0 1 0 0-1 0-1 0-1 0-1 0-1 0-1 0 0 1-1 1-1 0 0 0 0 0 0 0-1 0-1 0-2 0 0 0 0 0 0z m-119 177l0-89 88 0z m101-463l0 83-362 0 0-83z m-346 132c4-1 11-2 16-2 22 0 35 10 35 38l0 62-22 0 0-62c0-15-6-20-15-20-5 0-9 1-12 2z m126 67c0-10-7-16-19-16-4 0-6 1-8 1l0 29c2 1 5 1 9 1 12 0 18-5 18-15z m-49-68l22 0 0 36c2-1 5-1 8-1 13 0 24 3 32 11 6 5 9 13 9 23 0 10-4 18-11 23-6 5-16 8-30 8-13 0-23-1-30-2z m142 17c-18 0-31 12-31 33 0 21 14 32 33 32 11 0 18-2 23-5l5 18c-5 3-15 5-28 5-32 0-56-19-56-51 0-15 5-28 14-36 9-9 22-14 40-14 13 0 26 4 33 6l0 52-37 0 0-17 15 0 0-21c-1-1-5-2-11-2z m127 138l0 70-110 0c-5 0-9 4-9 9l0 111-243 0 0-190z"/>
<glyph glyph-name="extensions-mp4" unicode="&#57372;" d="M459 304l28 0 0-203-28 0 0-92c0-5-4-9-9-9l-380 0c-5 0-9 4-9 9l0 92-29 0 0 203 29 0 0 199c0 5 4 9 9 9l261 0c0 0 0 0 0 0 1 0 1 0 2 0 0 0 0 0 0 0 1 0 1 0 2-1 0 0 0 0 0 0 0 0 1 0 1 0 0-1 0-1 0-1 1 0 1 0 2-1 0 0 0 0 0 0 0 0 0 0 0 0l118-120c1 0 1-1 1-1 0 0 0 0 1 0 0-1 0-1 0-1 0-1 0-1 0-1 0 0 1-1 1-1 0 0 0 0 0 0 0-1 0-1 0-2 0 0 0 0 0 0z m-119 177l0-89 88 0z m101-463l0 83-362 0 0-83z m-363 134l20 0 2 36c1 12 1 27 2 40l0 0c2-12 6-26 9-37l10-38 17 0 12 38c3 11 7 25 10 37l1 0c0-14 0-28 1-39l1-37 21 0-5 96-28 0-11-32c-3-11-6-23-9-35l0 0c-2 12-5 24-8 35l-10 32-29 0z m178 66c0-10-7-16-19-16-3 0-5 1-7 1l0 28c1 1 4 1 9 1 11 0 17-5 17-14z m-48-66l0 0 22 0 0 34c2 0 4 0 7 0 13 0 24 3 31 10 6 5 9 13 9 23 0 9-4 17-10 22-6 5-16 8-29 8-14 0-23-1-30-2z m117 59c3 6 5 11 8 17l1 0c0-6-1-12-1-17l0-21-21 0 0 0z m40-21l-11 0 0 55-27 0-35-57 0-14 41 0 0-22 21 0 0 22 11 0z m76 114l0 70-110 0c-5 0-9 4-9 9l0 111-243 0 0-190z"/>
<glyph glyph-name="extensions-png" unicode="&#57373;" d="M459 304l28 0 0-203-28 0 0-92c0-5-4-9-9-9l-380 0c-5 0-9 4-9 9l0 92-29 0 0 203 29 0 0 199c0 5 4 9 9 9l261 0c0 0 0 0 0 0 1 0 1 0 2 0 0 0 0 0 0 0 1 0 1 0 2-1 0 0 0 0 0 0 0 0 1 0 1 0 0-1 0-1 0-1 1 0 1 0 2-1 0 0 0 0 0 0 0 0 0 0 0 0l118-120c1 0 1-1 1-1 0 0 0 0 1 0 0-1 0-1 0-1 0-1 0-1 0-1 0 0 1-1 1-1 0 0 0 0 0 0 0-1 0-1 0-2 0 0 0 0 0 0z m-119 177l0-89 88 0z m-215-263c0-10-7-16-19-16-3 0-5 1-7 1l0 28c1 1 4 1 9 1 11 0 17-5 17-14z m-48 29l0 0 0-95 22 0 0 34c2 0 4 0 7 0 13 0 24 3 32 10 5 5 8 13 8 23 0 9-4 17-10 22-6 5-16 8-29 8-14 0-23-1-30-2z m364-229l0 83-362 0 0-83z m-214 202c0-15 1-28 2-40l-1 0c-4 11-9 23-15 33l-20 35-26 0 0-96 20 0 0 29c0 15 0 29 0 42l0 0c5-11 11-24 17-34l20-37 23 0 0 96-20 0z m95-52c-18 0-31 12-31 32 0 21 14 31 32 31 11 0 17-2 23-4l4 17c-4 3-14 5-26 5-32 0-55-18-55-50-1-14 4-27 13-35 9-9 22-13 39-13 13 0 26 3 32 5l0 51-35 0 0-17 14 0 0-20c-1-1-5-2-10-2z m119 136l0 70-110 0c-5 0-9 4-9 9l0 111-243 0 0-190z"/>
<glyph glyph-name="filter" unicode="&#57374;" d="M511 473c-1 5-6 7-11 7l-488 0c-5 0-10-2-11-7-2-5-1-10 3-14l203-203 0-203c0-3 3-8 6-11 3-1 9-2 11 0l73 37c4 2 8 6 8 11l0 166 203 203c4 4 5 9 3 14z"/>
<glyph glyph-name="final-flag" unicode="&#57375;" d="M64 512l0-512 56 0 0 201c38 2 87-3 118-14l14-5c16-6 32-9 48-9 20 0 40 4 58 9 31 7 62 18 95 32 11 4 17 15 17 26l0 222c0 9-5 18-13 23-7 5-17 7-26 2-30-12-59-22-87-29-25-6-51-11-73-2l-14 5c-37 13-92 19-137 17l0 33-56 0z m173-102l14-5c37-14 75-8 106 0 19 4 37 10 57 17l0-163c-25-10-48-17-70-23-25-5-51-10-73-2l-14 5c-32 11-76 18-116 18-7 0-14 0-21 0l0 166c38 3 87-2 117-13z"/>
<glyph glyph-name="gear-outline" unicode="&#57376;" d="M500 306c-34 14-73 21-73 21l37 67c3 6 2 14-3 19l-48 48c-5 5-13 6-19 3l-67-37-21 73c-2 7-9 12-16 12l-68 0c-7 0-14-5-16-12l-21-73-67 37c-6 3-14 2-19-3l-48-48c-5-5-6-13-3-19l37-67-73-21c-7-2-12-9-12-16l0-68c0-7 5-14 12-16l73-21-37-67c-3-6-2-14 3-19l48-48c5-5 13-6 19-3l67 37 21-73c2-7 9-12 16-12l68 0c7 0 14 5 16 12l21 73 67-37c6-3 14-2 19 3l48 48c5 5 6 13 3 19l-37 67 73 21c7 2 12 9 12 16l0 68c0 7-3 12-12 16z m-20-72l-81-23c-5-2-9-5-11-10-2-4-1-9 1-14l41-74-31-31-74 41c-5 2-10 3-14 1-5-2-8-6-10-11l-23-81-44 0-23 81c-2 5-5 9-10 11-4 2-9 1-14-1l-74-41-31 31 41 74c2 5 3 10 1 14-2 5-6 8-10 10l-82 23 0 44 82 23c4 2 8 5 10 10 2 4 2 9-1 14l-41 74 31 31 74-41c5-3 10-3 14-1 5 2 8 6 10 10l23 82 44 0 23-82c2-4 5-8 10-10 4-2 9-2 14 1l74 41 31-31-41-74c-2-5-3-10-1-14 2-5 6-8 11-10l81-23z m-149 97c-20 20-47 31-75 31-58 0-106-48-106-106 0-58 48-106 106-106 28 0 55 11 75 31 20 20 31 47 31 75 0 28-11 55-31 75z m-75-149c-41 0-73 33-73 74 0 41 32 73 73 73 41 0 74-32 74-73 0-41-33-74-74-74z"/>
<glyph glyph-name="gear-setting" unicode="&#57377;" d="M494 329l-31 0c-3 7-6 15-9 21l22 22c7 8 7 19 0 26l-78 78c-7 7-18 7-26 0l-22-22c-7 3-14 6-21 9l0 31c0 10-8 18-18 18l-110 0c-10 0-18-8-18-18l0-31c-7-3-15-6-22-9l-21 22c-8 7-19 7-26 0l-78-78c-7-7-7-18 0-26l22-22c-3-7-6-14-9-21l-31 0c-10 0-18-8-18-18l0-110c0-10 8-18 18-18l31 0c3-7 6-15 9-22l-22-21c-7-8-7-19 0-26l78-78c7-7 18-7 26 0l22 22c6-3 14-6 21-9l0-31c0-10 8-18 18-18l110 0c10 0 18 8 18 18l0 31c7 3 15 6 22 9l21-22c8-7 19-7 26 0l78 78c7 7 7 18 0 26l-22 21c3 7 6 15 9 22l31 0c10 0 18 8 18 18l0 110c0 10-8 18-18 18z m-19-110l-26 0c-8 0-15-5-17-13-4-14-9-27-16-39-4-7-3-16 3-22l18-18-52-52-18 18c-6 6-15 7-22 3-12-7-26-12-39-16-8-2-14-9-14-17l0-26-73 0 0 26c0 8-5 15-13 17-14 4-27 9-39 16-7 4-16 3-22-3l-18-18-52 52 18 18c6 6 7 15 3 22-7 12-12 26-16 39-2 8-9 13-17 13l-26 0 0 74 26 0c8 0 15 5 17 13 4 14 9 27 16 39 4 7 3 16-3 22l-18 18 52 52 18-18c6-6 15-7 22-3 12 7 25 12 39 16 8 2 13 9 13 17l0 26 74 0 0-26c0-8 5-15 13-17 14-4 27-9 39-16 7-4 16-3 22 3l18 18 52-52-18-18c-6-6-7-15-3-22 7-12 12-25 16-39 2-8 9-13 17-13l26 0z m-219 165c-71 0-128-57-128-128 0-71 57-128 128-128 71 0 128 57 128 128 0 71-57 128-128 128z m0-219c-50 0-91 41-91 91 0 50 41 91 91 91 50 0 91-41 91-91 0-50-41-91-91-91z"/>
<glyph glyph-name="gift-charge" unicode="&#57378;" d="M463 356l-103 0c34 12 56 29 68 48 10 16 12 34 7 53-9 32-38 55-72 55-7 0-13-1-20-3-40-10-66-64-81-108-1 0-2 0-2 0-13 36-36 78-69 87-6 2-12 2-17 2-30 0-56-20-64-49-5-16-3-32 6-46 9-15 26-29 51-39l-106 0c-16 0-29-13-29-30l0-60c0-16 13-30 29-30l4 0 0-207c0-16 13-29 30-29l335 0c16 0 29 13 29 29l0 207 4 0c16 0 30 14 30 30l0 60c0 17-13 30-30 30z m-201 17c15 0 25-6 30-17l-59 0c4 11 15 17 29 17z m-59-345l-108 0c-1 0-2 1-2 1l0 207 110 0z m0 236l-142 0c0 0-1 1-1 2l0 60c0 1 1 2 1 2l142 0z m6 107c-35 10-60 23-69 39-5 7-6 15-3 24 4 17 19 28 37 28 3 0 6 0 10-1 17-4 34-28 48-67-10-5-18-13-23-23z m85-343l-63 0 0 208 63 0z m0 236l-63 0 0 64 63 0z m-5 132c18 50 40 81 62 86 4 1 8 2 12 2 21 0 40-14 45-35 3-11 2-21-4-30-12-20-43-37-89-48-5 11-14 20-26 25z m142-367c0 0 0-1-1-1l-108 0 0 208 109 0z m34 237c0-1-1-2-2-2l-141 0 0 64 141 0c1 0 2-1 2-2z"/>
<glyph glyph-name="help" unicode="&#57379;" d="M492 356c-13 30-31 58-55 81-23 24-51 42-81 55-32 13-65 20-100 20-35 0-68-7-100-20-30-13-58-31-81-55-24-23-42-51-55-81-13-32-20-65-20-100 0-35 7-68 20-100 13-30 31-58 55-81 23-24 51-42 81-55 32-13 65-20 100-20 35 0 68 7 100 20 30 13 58 31 81 55 24 23 42 51 55 81 13 32 20 65 20 100 0 35-7 68-20 100z m-236-291c-22 0-40 18-40 40 0 22 18 40 40 40 22 0 40-18 40-40 0-22-18-40-40-40z m96 226c-7-14-18-27-30-37-4-3-8-5-12-8 0 0 0 0-1 0l0 0c0-1-1-1-1-1-16-8-26-25-26-42l0-19c0-1-1-3-3-3l-46 0c-2 0-3 2-3 3l0 19c0 37 20 71 53 88 0 0 0 0 0 1 0 0 1 0 1 0 2 1 4 2 6 4 13 10 21 26 21 43 0 31-25 56-55 56-30 0-55-25-55-56 0-1-1-3-3-3l-47 0c-1 0-3 2-3 3 0 15 3 29 9 42 5 13 13 25 23 35 10 10 21 17 34 23 13 5 27 8 42 8 15 0 29-3 42-8 13-6 24-13 34-23 10-10 18-22 23-35 6-13 9-27 9-42 0-17-4-33-12-48z"/>
<glyph glyph-name="help-outline" unicode="&#57380;" d="M256 512c-141 0-256-115-256-256 0-141 115-256 256-256 141 0 256 115 256 256 0 141-115 256-256 256z m0-28c126 0 228-102 228-228 0-126-102-228-228-228-126 0-228 102-228 228 0 126 102 228 228 228z m0-64c-36 0-64-16-82-37-17-21-25-47-25-70 0-5 3-10 7-13 5-2 10-2 15 1 4 2 7 7 7 12 0 17 6 37 18 52 13 15 31 26 60 26 53 0 78-31 78-64 0-34-18-48-40-63-11-8-23-15-33-25-10-9-19-23-19-40 0 0 0-7 0-21 0-5 2-10 7-13 4-2 10-2 14 0 5 3 7 8 7 13l0 21c0 8 3 13 10 19 7 7 18 14 30 22 24 17 53 42 53 87 0 48-42 93-107 93z m0-285c-12 0-21-9-21-21 0-12 9-22 21-22 12 0 21 10 21 22 0 12-9 21-21 21z"/>
<glyph glyph-name="img-upload" unicode="&#57381;" d="M480 480c18 0 32-15 32-32l0-375c0-17-14-32-32-32l-448 0c-18 0-32 15-32 32l0 375c0 17 14 32 32 32z m-96-183c-30 0-55 25-55 55 0 30 25 55 55 55 30 0 55-25 55-55 0-30-25-55-55-55z m-22-43l113-122 0 298c0 8-7 13-15 13l-408 0c-8 0-14-5-15-13l0-298 144 175c5 5 12 9 19 9 8 0 15-4 19-9l62-66c2-2 4-4 5-5 3-3 7-5 12-5 6 0 9 2 14 6l21 18c5 3 9 6 15 6 5 0 11-3 14-7z"/>
<glyph glyph-name="inventory" unicode="&#57382;" d="M268 512l0-49c0-4-2-8-6-10-4-3-8-3-12 0-4 2-6 6-6 10l0 49c-132-6-238-112-244-244l49 0c4 0 8-2 10-6 3-4 3-8 0-12-2-4-6-6-10-6l-49 0c6-132 112-238 244-244l0 49c0 6 4 11 11 12 3 0 7-1 9-3 3-3 4-6 4-9l0-49c132 6 238 112 244 244l-49 0c-4 0-8 2-10 5-3 4-3 9-1 13 2 3 6 6 10 6 1 0 1 0 1 0l49 0c-6 132-112 238-244 244z m122-122l-91-160-69 69z m-177-108l69-69-160-91z"/>
<glyph glyph-name="loading-circle" unicode="&#57383;" d="M256 512c141 0 256-115 256-256 0-141-115-256-256-256-32 0-63 6-91 17-2 1-3 1-5 2-28 15-37 45-27 67 7 18 25 30 46 30 9 0 16-2 23-4 17-6 35-10 54-10 85 0 154 69 154 154 0 85-69 154-154 154-85 0-154-69-154-154 0-11 1-21 3-31 1-1 1-2 1-3 2-15-2-30-10-40-8-11-20-17-34-18-36 0-54 20-60 57-1 12-2 23-2 35 0 120 89 255 256 256z"/>
<glyph glyph-name="lock-outline" unicode="&#57384;" d="M256 512c-75 0-137-61-137-137l0-65-29 0c-23 0-42-19-42-42l0-226c0-23 19-42 42-42l332 0c23 0 42 19 42 42l0 226c0 23-19 42-42 42l-29 0 0 65c0 76-62 137-137 137z m0-36c56 0 101-45 101-101l0-65-202 0 0 65c0 56 45 101 101 101z m-166-202l332 0c4 0 6-2 6-6l0-226c0-4-2-6-6-6l-332 0c-4 0-6 2-6 6l0 226c0 4 2 6 6 6z m166-36c-29 0-53-24-53-53 0-13 4-23 11-32l0-40c0-23 19-42 42-42 23 0 42 19 42 42l0 40c7 9 11 19 11 32 0 29-24 53-53 53z m0-36c10 0 18-7 18-17 0-6-2-10-6-14-4-3-6-8-6-13l0-45c0-3-2-6-6-6-4 0-6 3-6 6l0 45c0 5-2 10-6 13-4 4-6 8-6 14 0 10 8 17 18 17z"/>
<glyph glyph-name="logout-user" unicode="&#57385;" d="M457 512c30 0 55-25 55-55l0-402c0-30-25-55-55-55l-238 0c-30 0-54 25-54 55l0 110c0 10 8 18 18 18 10 0 18-8 18-18l0-110c0-10 8-18 18-18l238 0c10 0 18 8 18 18l0 402c0 10-8 18-18 18l-238 0c-10 0-18-8-18-18l0-110c0-10-8-18-18-18-10 0-18 8-18 18l0 110c0 30 24 55 54 55z m-456-249c1 2 3 4 4 6l92 91c7 7 18 7 25 0 7-7 8-18 1-26l-61-60 304 0c10 0 18-8 18-18 0-10-8-18-18-18l-304 0 61-61c4-4 6-11 5-17-2-7-7-12-13-13-7-2-14 0-18 5l-92 91c-1 2-3 4-4 6-1 4-1 9 0 14z"/>
<glyph glyph-name="magnifier" unicode="&#57386;" d="M507 29l-136 136c33 38 50 86 50 136 0 57-22 110-61 149-40 40-93 62-149 62-57 0-110-22-149-62-40-39-62-92-62-149 0-56 22-109 62-149 39-39 92-61 149-61 50 0 98 17 136 50l136-136c4-3 8-5 12-5 5 0 9 2 12 5 7 6 7 17 0 24z m-296 95c-48 0-92 19-126 52-33 34-52 78-52 125 0 48 19 92 52 126 34 33 78 52 126 52 47 0 91-19 125-52 33-34 52-78 52-126 0-47-19-91-52-125-34-33-78-52-125-52z"/>
<glyph glyph-name="menhair-normal" unicode="&#57387;" d="M128 330c42 6 79 28 104 62 32-18 69-27 108-27 10 0 19 0 29 1 0-4 0-8 0-13 0-76-54-138-121-138-60 0-110 50-120 115m37 124c13-20 30-37 50-51-21-29-53-48-88-53 0 1 0 2 0 3 0 40 14 76 38 101m201-68c-9-1-17-1-26-1-38 0-75 10-105 29 0 0 0 0 0 0-1 0-1 0-2 1-21 13-40 31-53 53 19 15 43 24 68 24 57 0 105-45 118-106m-66-180c53 23 90 81 90 147 0 9-1 18-2 26 0 0 0 0 0 1 0 0 0 0 0 0-12 75-70 132-140 132-33 0-63-13-87-34-1 0-1-1-2-1-32-29-53-74-53-124 0-3 1-7 1-11 0-1-1-2-1-3 1-1 1-3 1-4 6-59 41-107 88-129-76-25-131-103-131-196 0-5 4-10 10-10 6 0 10 5 10 10 0 102 73 185 163 185 91 0 164-83 164-185 0-5 4-10 10-10 5 0 10 5 10 10 0 92-55 171-131 196"/>
<glyph glyph-name="money-charge" unicode="&#57388;" d="M511 345c0 4-2 7-6 9l-26 9 28 13c3 2 5 5 5 9 0 3-2 7-6 8l-149 53c-7 3-13 2-19 0l-198-91c-29-13-83-19-127-6-5 1-11-1-12-6-2-5 1-10 6-12l94-34-90-41c-3-2-5-6-5-9 0-4 2-7 6-9l27-9-28-13c-3-2-6-6-5-9 0-4 2-8 6-9l27-9-28-14c-3-1-5-5-5-9 0-3 2-7 6-8l27-10-28-13c-3-2-5-5-5-9 0-3 2-7 6-8l149-53c3-2 6-2 9-2 3 0 7 0 11 2l325 151c4 1 5 5 5 9 0 3-2 7-6 8l-27 10 28 13c4 2 5 5 5 9 0 3-2 7-6 8l-27 10 28 13c4 2 5 5 5 9 0 4-2 7-6 8l-27 10 28 13c4 2 6 6 5 9z m-33-1l-83-39 0 19 61 28z m-133 85c2 1 3 1 5 0l127-45-94-44-130 47z m-115-54l147-52 0-148-36-18 0 146c0 4-6 7-9 9l-135 48z m-146-52c25 2 47 7 63 14l23 11 130-47-5-2c-28-13-82-19-127-6z m42-35l36-13c20-6 41-8 60-8 32 0 65 6 84 15l17 6 0-19-146-66c-2-1-6-1-8 0l-128 46z m35-103c3-1 6-2 9-2 3 0 11 1 15 3l138 62 0-19-146-66c-2-1-6-1-8 0l-128 45 24 12z m0-40c3-1 6-2 9-2 3 0 11 1 15 2l138 63 0-19-146-66c-2-2-6-2-8 0l-128 45 24 12z m16-62c-2-2-6-2-8 0l-128 45 24 11 96-34c3-2 6-2 9-2 4 0 12 0 15 2l138 63 0-20z m301 140l-83-39 0 20 60 28z m0 41l-83-39 0 19 60 28z m0 40l-83-39 0 19 60 28z"/>
<glyph glyph-name="money-outline" unicode="&#57389;" d="M486 176l-82-54-101 0 0 34 107 0c3 0 6 1 10 3l85 63c7 6 9 16 4 24-6 7-16 9-24 4l-81-60-101 0 0 34 107 0c3 0 7 1 10 4l86 68c7 5 8 16 2 24-5 7-16 8-23 3l-82-65-100 0 0 34 107 0c4 0 8 2 11 5l85 79c5 5 7 13 5 19-3 7-9 11-16 11l-101 0c-3 6-9 10-16 10l-152 0c-5 0-9-2-12-5l-5-5-107 0c-4 0-8-1-11-4l-85-79c-5-5-7-12-5-19 2-7 9-11 16-11l100 0 0-34-100 0c-10 0-17-7-17-17 0-10 7-17 17-17l100 0 0-34-100 0c-10 0-17-8-17-17 0-10 7-18 17-18l100 0 0-33-100 0c-10 0-17-8-17-17 0-10 7-18 17-18l393 0c3 0 6 1 9 3l85 57c8 5 10 16 5 24-5 7-16 9-23 4z m-83 151l-77 0 48 45 78 0z m-294 45l63 0-49-45-62 0z m42-67l82 77 101 0-60-57c-3-3-6-8-6-12l0-191-117 0z"/>
<glyph glyph-name="more" unicode="&#57390;" d="M64 192c35 0 64 29 64 64 0 35-29 64-64 64-35 0-64-29-64-64 0-35 29-64 64-64z m192 0c35 0 64 29 64 64 0 35-29 64-64 64-35 0-64-29-64-64 0-35 29-64 64-64z m192 0c35 0 64 29 64 64 0 35-29 64-64 64-35 0-64-29-64-64 0-35 29-64 64-64z"/>
<glyph glyph-name="pending" unicode="&#57391;" d="M429 236l0 40 83 0 0-20c0-141-115-256-256-256-141 0-256 115-256 256 0 141 115 256 256 256l20 0 0-84-40 0 0 43c-104-9-186-91-195-195l43 0 0-40-43 0c9-104 91-186 195-195l0 43 40 0 0-43c104 9 186 91 195 195z m-193 141l40 0 0-121 67-67-28-28-79 79z"/>
<glyph glyph-name="plusbold" unicode="&#57392;" d="M512 187l-187 0 0-187-138 0 0 187-187 0 0 138 187 0 0 187 137 0 0-187 188 0z"/>
<glyph glyph-name="preview-desktop" unicode="&#57393;" d="M490 480l-468 0c-12 0-22-10-22-22l0-319c0-13 10-23 22-23l171 0 0-44-48 0c-4 0-8-3-8-8 0-4 4-7 8-7l222 0c4 0 8 3 8 7 0 5-4 8-8 8l-48 0 0 44 171 0c12 0 22 10 22 23l0 319c0 12-10 22-22 22z m-186-408l-96 0 0 44 96 0z m193 145l-482 0 0 241c0 4 3 7 7 7l468 0c4 0 7-3 7-7z"/>
<glyph glyph-name="preview-mobile" unicode="&#57394;" d="M384 512c15 0 27-12 27-27l0-458c0-15-12-27-27-27l-229 0c-15 0-27 12-27 27l0 458c0 15 12 27 27 27z m-101-448l-27 0c-5 0-9-4-9-9 0-5 4-9 9-9l27 0c5 0 10 4 10 9 0 5-5 9-10 9z m-137 375l0-338 247 0 0 338z"/>
<glyph glyph-name="preview-tablet" unicode="&#57395;" d="M419 512l-330 0c-14 0-25-11-25-25l0-462c0-14 11-25 25-25l330 0c14 0 25 11 25 25l0 462c0 14-11 25-25 25z m-338-58l346 0 0-358-346 0z m189-396c5 0 9-4 9-8 0-5-4-9-9-9l-33 0c-4 0-8 4-8 9 0 4 4 8 8 8z"/>
<glyph glyph-name="print" unicode="&#57396;" d="M473 411l-1 0 0 90c0 6-5 11-11 11l-410 0c-6 0-11-5-11-11l0-90-1 0c-21 0-39-18-39-40l0-189c0-22 18-39 39-39l55 0 0-119c0-6 5-11 11-11l308 0c6 0 11 5 11 11l0 119 49 0c21 0 39 17 39 39l0 189c0 22-18 40-39 40z m-411 78l388 0 0-78-388 0z m339-453l-285 0 0 165 285 0z m88 146c0-9-7-17-16-17l-49 0 0 36 13 0c6 0 11 5 11 11 0 6-5 11-11 11l-362 0c-6 0-11-5-11-11 0-6 5-11 11-11l19 0 0-36-55 0c-9 0-16 8-16 17l0 189c0 10 7 17 16 17l434 0c9 0 16-7 16-17z m-323-51l180 0c6 0 11 5 11 12 0 6-5 11-11 11l-180 0c-6 0-11-5-11-11 0-7 5-12 11-12z m0-60l180 0c6 0 11 5 11 12 0 6-5 11-11 11l-180 0c-6 0-11-5-11-11 0-7 5-12 11-12z m271 275l-103 0c-6 0-11-5-11-11l0-53c0-6 5-11 11-11l103 0c6 0 11 5 11 11l0 53c0 6-5 11-11 11z m-11-52l-81 0 0 30 81 0z"/>
<glyph glyph-name="summary" unicode="&#57397;" d="M256 0c-141 0-256 115-256 256 0 141 115 256 256 256 141 0 256-115 256-256 0-141-115-256-256-256z m0 32c124 0 224 100 224 224 0 124-100 224-224 224-124 0-224-100-224-224 0-124 100-224 224-224z m102 334c7 0 12-6 12-12 0-7-5-12-12-12l-204 0c-7 0-12 5-12 12 0 6 5 12 12 12z m-35-83l-134 0c-6 0-12 5-12 12 0 6 6 11 12 11l134 0c6 0 12-5 12-11 0-7-6-12-12-12z m35-36c7 0 12-5 12-12 0-6-5-12-12-12l-204 0c-7 0-12 6-12 12 0 7 5 12 12 12z m-35-59c6 0 12-6 12-12 0-7-6-12-12-12l-134 0c-6 0-12 5-12 12 0 6 6 12 12 12z"/>
<glyph glyph-name="target" unicode="&#57398;" d="M496 271l-32 0c-8 105-90 187-195 194l0 32c0 9-6 15-14 15-9 0-15-6-15-15l0-32c-104-7-187-90-194-194l-31 0c-9 0-15-7-15-15 0-8 6-15 15-15l32 0c7-104 90-187 194-194l0-32c0-9 7-15 15-15 8 0 15 6 15 15l0 32c104 7 187 90 194 194l32 0c9 0 15 7 15 15-1 9-7 15-16 15z m-109-14c0-9 6-15 14-15l34 0c-7-88-77-158-165-165l0 34c0 8-6 14-15 14-8 0-14-6-14-14l0-34c-88 7-158 77-165 165l33 0c9 0 15 6 15 15 0 8-6 14-15 14l-33 0c7 88 77 158 165 165l0-33c0-9 6-15 14-15 9 0 15 6 15 15l0 33c88-7 158-77 165-165l-34 0c-8 0-14-6-14-14z m-132 82c-45 0-82-37-82-82 0-46 37-83 82-83 46 0 83 37 83 83 0 45-37 82-83 82z m45-82c0-25-20-45-45-45-24 0-44 20-44 45 0 24 20 44 44 44 25 0 45-20 45-44z"/>
<glyph glyph-name="trans-archive" unicode="&#57399;" d="M475 18l0 476c0 10-8 18-18 18l-439 0c-10 0-18-8-18-18l0-476c0-10 8-18 18-18l439 0c10 0 18 8 18 18z m-438 457l109 0 0-438-109 0z m146 0l110 0 0-438-110 0z m256-438l-110 0 0 438 110 0z m-348 329c-20 0-36 16-36 36 0 20 16 37 36 37 21 0 37-17 37-37 0-20-16-36-37-36z m147 0c-20 0-37 16-37 36 0 20 17 37 37 37 20 0 36-17 36-37 0-20-16-36-36-36z m146 0c20 0 37 16 37 36 0 20-17 37-37 37-20 0-37-17-37-37 0-20 17-36 37-36z m-274-201c10 0 18-9 18-19 0-10-8-18-18-18l-37 0c-10 0-18 8-18 18 0 10 8 19 18 19z m0 54c10 0 18-8 18-18 0-10-8-18-18-18l-37 0c-10 0-18 8-18 18 0 10 8 18 18 18z m0 55c10 0 18-8 18-18 0-10-8-18-18-18l-37 0c-10 0-18 8-18 18 0 10 8 18 18 18z m146-109c10 0 18-9 18-19 0-10-8-18-18-18l-37 0c-10 0-18 8-18 18 0 10 8 19 18 19z m0 54c10 0 18-8 18-18 0-10-8-18-18-18l-37 0c-10 0-18 8-18 18 0 10 8 18 18 18z m0 55c10 0 18-8 18-18 0-10-8-18-18-18l-37 0c-10 0-18 8-18 18 0 10 8 18 18 18z m110-146l36 0c10 0 19 8 19 18 0 10-9 19-19 19l-36 0c-10 0-19-9-19-19 0-10 9-18 19-18z m0 55l36 0c10 0 19 8 19 18 0 10-9 18-19 18l-36 0c-10 0-19-8-19-18 0-10 9-18 19-18z m0 55l36 0c10 0 19 8 19 18 0 10-9 18-19 18l-36 0c-10 0-19-8-19-18 0-10 9-18 19-18z"/>
<glyph glyph-name="trashbin" unicode="&#57400;" d="M476 444l-153 0 0 68-176 0 0-68-147 0 0-37 44 0 31-407 321 0 31 407 49 0z m-292 31l103 0 0-31-103 0z m177-437l-252 0-28 369 308 0z m-145 317l0-267 38 0 0 267z m105-268l15 267-38 2-14-267z m-172 0l37 2-14 267-37-2z"/>
<glyph glyph-name="triangledown" unicode="&#57419;" d="M256 96l256 320-512 0z"/>
<glyph glyph-name="unread-ticket" unicode="&#57402;" d="M255 480c-3 0-5-1-8-2l-110-66-52 0c0 0-1 0-1 0-9-1-16-9-16-17l0-24-60-36c-5-3-8-8-8-14l0-234c0-21 18-39 40-39l432 0c22 0 40 18 40 39l0 234c0 6-3 11-8 14l-60 36 0 24c0 9-8 17-17 17l-52 0-110 66c-3 1-7 2-10 2z m1-37l53-31-106 0z m-154-65l308 0 0-88-154-92-154 92z m-34-47l0-21-18 11z m376 0l18-10-18-11z m-410-40l213-127c6-3 12-3 18 0l213 127 0-204c0-3-2-5-6-5l-432 0c-4 0-6 2-6 5z"/>
<glyph glyph-name="upload-file" unicode="&#57403;" d="M78 0c-29 0-52 23-52 52l0 217c0 29 23 52 52 52l95 0c11 0 20-9 20-19 0-11-9-20-20-20l-95 0c-7 0-13-6-13-13l0-217c0-7 6-13 13-13l359 0c7 0 13 6 13 13l0 217c0 7-6 13-13 13l-95 0c-11 0-20 9-20 20 0 10 9 19 20 19l95 0c29 0 52-23 52-52l0-217c0-29-23-52-52-52z m69 375l0 0c-8-7-20-6-27 3-7 8-6 20 2 27l119 102c8 7 18 7 26 0l119-102c8-7 9-19 2-27-7-9-19-10-28-3l-87 75 0-296c0-11-8-19-19-19-11 0-20 8-20 19l0 296z"/>
<glyph glyph-name="verifymail" unicode="&#57404;" d="M487 474c-7 4-15 6-23 6l-416 0c-8 0-16-2-22-6-7-3-14-9-18-16-5-7-8-16-8-26l0-277c0-9 2-17 7-25 4-7 9-12 17-17 7-4 16-6 24-6l94 0c5 0 9 4 9 8 0 5-4 9-9 9l-94 0c-5 0-9 1-14 3l124 123c3 4 3 9 0 13-3 3-9 3-12 0l-125-124c0 0 0 0 0 0-2 5-4 10-4 16l0 277c0 6 2 12 5 16 133-110 211-170 230-179 1 0 2 0 2-1 1 0 1 0 2 0 0 0 0 0 0 0 0 0 1 0 1 0 1 1 2 1 3 1 19 9 97 69 230 179 0 0 0 0 0 0 3-4 5-10 5-16l0-277c0-6-2-11-5-16 0 0 0 0 0 0l-124 124c-3 3-9 3-12 0-3-4-3-9 0-12l124-124c-5-2-9-3-14-3l-94 0c-5 0-9-4-9-9 0-4 4-8 9-8l94 0c8 0 17 2 24 6 8 5 13 10 17 17 5 8 7 16 7 25l0 277c0 10-3 19-8 26-4 7-11 13-17 16z m-231-189c-18 9-140 108-221 175 4 2 8 3 13 3l416 0c4 0 8-1 12-3-81-67-205-168-220-175z m83-170c0-46-37-83-83-83-46 0-83 37-83 83 0 46 37 84 83 84 46 0 83-38 83-84z m-149 0c0-36 30-66 66-66 37 0 66 30 66 66 0 37-29 66-66 66-36 0-66-29-66-66z m111 20l-51-51c0 0 0-1-1-1-1-2-4-2-6-2-2 0-4 0-6 2l-26 26c-4 4-4 9 0 13 3 3 9 3 12 0l20-21 46 47c4 3 9 3 12 0 4-4 4-9 0-13z"/>
<glyph glyph-name="vid-upload" unicode="&#57405;" d="M256 512c-142 0-256-114-256-256 0-142 114-256 256-256 142 0 256 114 256 256 0 142-114 256-256 256z m134-328l-70 59 0-57c0-5-4-10-9-10l-189 0c-5 0-10 5-10 10l0 141c0 5 5 9 10 9l189 0c5 0 9-4 9-9l0-57 70 58c4 4 10 1 10-4l0-135c0-5-6-8-10-5z"/>
<glyph glyph-name="womenhair-normal" unicode="&#57406;" d="M324 215c27 17 49 43 61 76 9-19 22-32 36-41-32-28-56-34-97-35m-198 76c12-33 34-59 61-76-41 1-65 7-97 35 14 9 27 22 36 41m129 201c64 0 117-57 122-128-3-1-6-1-8-1-43 0-82 26-105 68-1 3-5 5-9 5-3 0-7-2-8-5-23-42-62-68-105-68-2 0-5 0-8 1 5 71 58 128 121 128m0-277c-64 0-116 57-121 129 3-1 6-1 8-1 45 0 87 24 113 64 27-40 69-64 114-64 2 0 5 0 8 1-5-72-57-129-122-129m192 37c0 4-2 6-5 8-24 14-48 35-45 84 0 0 0 0 0 0 0 3 0 6 0 9 0 1 0 1 0 1 0 0 0 1 0 1-1 87-64 157-142 157-77 0-140-70-141-157 0 0 0-1 0-1 0 0 0 0 0-1 0-3 0-6 0-9 0 0 0 0 0 0 3-49-21-70-45-84-3-2-5-4-5-8 0-3 1-6 3-8 39-37 67-47 109-49-62-33-105-103-105-185 0-5 5-10 11-10 5 0 10 5 10 10 0 102 73 185 163 185l0 0c90 0 163-83 163-185 0-5 5-10 10-10 6 0 10 5 10 10 0 81-43 152-104 185 42 2 71 11 110 49 2 2 3 5 3 8"/>
<glyph glyph-name="cylogo-without-typo" unicode="&#57407;" d="M432 413c58-97 26-223-71-282-33-20-69-29-105-29-69 0-137 36-176 99-58 97-26 223 71 282 33 20 69 29 105 29l0 0 0 0c69 0 137-35 176-99z m-75-75c-1 3-3 5-5 7-1 1-3 2-4 3l-1-1 1 1-1 0-131 70-1 0c0 1-1 1-2 1-1 1-2 1-3 1-7 2-14 1-20-3-6-3-10-9-12-16 0-1-1-2-1-3 0-1 0-2 0-3l0-149 0 0 0-1c0-2 0-3 1-5 0-3 1-5 3-8 4-6 9-10 16-12 7-1 14 0 20 3 3 2 6 4 8 7 1 1 1 2 2 3l0 1c0 1 1 1 1 2l16 40 42-70 1-1c5-7 13-12 22-12 4 0 9 2 13 4 12 7 16 23 10 35l-43 71 43-4c1-1 2-1 2-1l1 0c1 0 2 0 3 1 4 0 7 1 10 3 6 4 10 10 12 16 2 7 1 14-3 20z m92-290c4-8 5-16 3-24-2-8-7-15-14-20-5-2-11-4-16-4-12 0-22 6-28 15l-31 53c-9 15-4 34 11 43 7 4 15 6 23 4 9-3 15-8 20-15z"/>
<glyph glyph-name="sort" unicode="&#57408;" d="M256 0l-128 197 256 0z m0 512l128-197-256 0z"/>
<glyph glyph-name="reload" unicode="&#57409;" d="M505 259c0 139-113 253-252 253-15 0-28-13-28-28 0-14 13-28 28-27 109 0 197-89 197-198 0-66-32-125-81-161l0 33c0 10-5 20-14 25-8 5-19 5-27 0-9-5-14-15-14-25l0-96c0-16 12-28 27-28l96 0c7 0 14 3 20 8 5 5 8 13 8 20-1 7-4 14-9 19-5 6-12 8-19 8l-24 0c56 47 92 118 92 197z m-225-231c0 15-13 28-27 27-110 0-198 89-198 198 0 66 32 125 82 161l0-33c-1-10 5-20 13-25 9-5 19-5 28 0 8 5 13 15 13 25l0 96c0 16-12 28-27 28l-96 0c-7 0-14-3-19-8-5-5-8-12-8-19-1-8 2-15 8-20 5-5 12-8 19-8l25 0c-57-47-93-118-93-197 0-139 114-253 253-253 14 0 27 13 27 28z"/>
<glyph glyph-name="opennav" unicode="&#57410;" d="M492 416c11 0 20-9 20-20 0-11-9-20-20-20l-348 0c-11 0-20 9-20 20 0 11 9 20 20 20z m0-131c11 0 20-9 20-20 0-12-9-21-20-21l-348 0c-11 0-20 9-20 21 0 11 9 20 20 20z m0-131l-348 0c-11 0-20-9-20-21 0-11 9-20 20-20l348 0c11 0 20 9 20 20 0 12-9 21-20 21z m-492 115l66-67 0 134z"/>
<glyph glyph-name="pass-good" unicode="&#57411;" d="M256 0c-141 0-256 115-256 256 0 141 115 256 256 256 141 0 256-115 256-256 0-141-115-256-256-256z m0 28c126 0 228 102 228 228 0 126-102 228-228 228-126 0-228-102-228-228 0-126 102-228 228-228z m140 228c1 11 18 11 18 0-1-85-71-160-158-158-87 1-157 71-158 158-1 11 17 11 18 0 1-76 62-142 140-140 77 1 139 62 140 140z m-209 43c-20 0-36 16-36 36 0 19 16 35 36 35 20 0 36-16 36-35 0-20-16-36-36-36z m0 28c4 0 7 4 7 8 0 4-3 7-7 7-4 0-8-3-8-7 0-4 4-8 8-8z m135-28c-20 0-36 16-36 36 0 19 16 35 36 35 20 0 36-16 36-35 0-20-16-36-36-36z m0 28c4 0 7 4 7 8 0 4-3 7-7 7-4 0-8-3-8-7 0-4 4-8 8-8z"/>
<glyph glyph-name="pass-normal" unicode="&#57412;" d="M256 0c-141 0-256 115-256 256 0 141 115 256 256 256 141 0 256-115 256-256 0-141-115-256-256-256z m0 28c126 0 228 102 228 228 0 126-102 228-228 228-126 0-228-102-228-228 0-126 102-228 228-228z m102 151c8 9 21-4 13-12-64-65-167-65-231 0-8 9 5 22 13 13 57-58 148-59 205-1z m-171 120c-20 0-36 16-36 36 0 19 16 35 36 35 20 0 36-16 36-35 0-20-16-36-36-36z m0 28c4 0 7 4 7 8 0 4-3 7-7 7-4 0-8-3-8-7 0-4 4-8 8-8z m135-28c-20 0-36 16-36 36 0 19 16 35 36 35 20 0 36-16 36-35 0-20-16-36-36-36z m0 28c4 0 7 4 7 8 0 4-3 7-7 7-4 0-8-3-8-7 0-4 4-8 8-8z"/>
<glyph glyph-name="pass-strong" unicode="&#57413;" d="M256 0c-141 0-256 115-256 256 0 141 115 256 256 256 141 0 256-115 256-256 0-141-115-256-256-256z m0 28c126 0 228 102 228 228 0 126-102 228-228 228-126 0-228-102-228-228 0-126 102-228 228-228z m149 228c0-83-67-149-149-149-83 0-149 66-149 149z m-20-18l-258 0c0-61 60-111 129-111 69 0 129 50 129 111z m-198 61c-20 0-36 16-36 36 0 19 16 35 36 35 20 0 36-16 36-35 0-20-16-36-36-36z m0 28c4 0 7 4 7 8 0 4-3 7-7 7-4 0-8-3-8-7 0-4 4-8 8-8z m135-28c-20 0-36 16-36 36 0 19 16 35 36 35 20 0 36-16 36-35 0-20-16-36-36-36z m0 28c4 0 7 4 7 8 0 4-3 7-7 7-4 0-8-3-8-7 0-4 4-8 8-8z"/>
<glyph glyph-name="pass-typing" unicode="&#57414;" d="M256 0c-141 0-256 115-256 256 0 141 115 256 256 256 141 0 256-115 256-256 0-141-115-256-256-256z m0 28c126 0 228 102 228 228 0 126-102 228-228 228-126 0-228-102-228-228 0-126 102-228 228-228z m115 116c8-9-5-21-13-13-57 58-148 58-205-1-8-8-21 5-13 13 64 65 167 65 231 1z m-184 155c-20 0-36 16-36 36 0 19 16 35 36 35 20 0 36-16 36-35 0-20-16-36-36-36z m0 28c4 0 7 4 7 8 0 4-3 7-7 7-4 0-8-3-8-7 0-4 4-8 8-8z m135-28c-20 0-36 16-36 36 0 19 16 35 36 35 20 0 36-16 36-35 0-20-16-36-36-36z m0 28c4 0 7 4 7 8 0 4-3 7-7 7-4 0-8-3-8-7 0-4 4-8 8-8z"/>
<glyph glyph-name="pass-weak" unicode="&#57415;" d="M256 0c-141 0-256 115-256 256 0 141 115 256 256 256 141 0 256-115 256-256 0-141-115-256-256-256z m0 28c126 0 228 102 228 228 0 126-102 228-228 228-126 0-228-102-228-228 0-126 102-228 228-228z m-126 142c-12 0-12 18 0 18 82 0 165 0 248 0 12 0 12-18 0-18-83 0-166 0-248 0z m57 129c-20 0-36 16-36 36 0 19 16 35 36 35 20 0 36-16 36-35 0-20-16-36-36-36z m0 28c4 0 7 4 7 8 0 4-3 7-7 7-4 0-8-3-8-7 0-4 4-8 8-8z m135-28c-20 0-36 16-36 36 0 19 16 35 36 35 20 0 36-16 36-35 0-20-16-36-36-36z m0 28c4 0 7 4 7 8 0 4-3 7-7 7-4 0-8-3-8-7 0-4 4-8 8-8z"/>
<glyph glyph-name="uploadpicture" unicode="&#57416;" d="M441 346c39 0 71-32 71-71l0-204c0-39-32-71-71-71l-370 0c-39 0-71 32-71 71l0 204c0 39 32 71 71 71l70 0c5 0 8-4 8-8 0-5-3-9-8-9l-70 0c-15 0-28-6-38-16-10-10-16-23-16-38l0-204c0-15 6-28 16-38 10-10 23-16 38-16l370 0c15 0 29 6 39 16 9 10 15 23 15 38l0 204c0 15-6 28-15 38-10 10-24 16-39 16l-70 0c-5 0-8 4-8 9 0 4 3 8 8 8z m-247-239c-15 16-25 37-25 61 0 24 10 46 25 62 16 15 38 25 62 25 24 0 46-10 62-25 16-16 26-38 26-62 0-24-10-45-26-61-16-16-38-25-62-25-24 0-46 9-62 25z m12 111c-13-13-21-30-21-50 0-19 8-36 21-49 13-13 30-21 50-21 20 0 37 8 50 21 13 13 21 30 21 49 0 20-8 37-21 50-13 12-30 20-50 20-20 0-37-8-50-20z m211 21l-20 0c-5 0-8 4-8 9 0 4 3 8 8 8l20 0c4 0 8-4 8-8 0-5-4-9-8-9z m-161 90c-4 0-8 4-8 9l0 146-53-53c-3-4-9-4-12 0-3 3-3 8 0 11l67 68c1 0 2 1 3 1l0 0c1 1 2 1 3 1l0 0c1 0 2 0 3-1l0 0c1 0 2-1 3-1l67-68c3-3 3-8 0-11-3-4-8-4-12 0l-53 53 0-146c0-5-3-9-8-9z"/>
<glyph glyph-name="home" unicode="&#57417;" d="M256 448c-4 0-8-1-12-4l-237-187c-6-6-10-19-4-27 6-8 20-9 27-3l226 178 226-178c7-6 21-6 27 3 5 7 4 21-4 27l-238 187c-3 3-7 4-11 4z m-150-183l-37-29 0-181c0-11 8-19 18-19l119 0c10 0 19 8 19 19l0 106 62 0 0-106c0-11 9-19 19-19l119 0c10 0 18 8 18 19l0 181-37 29 0-192-81 0 0 107c0 10-9 18-19 18l-100 0c-10 0-19-8-19-18l0-107-81 0z"/>
<glyph glyph-name="arrow-left" unicode="&#57440;" d="M359 499c-1 5-4 10-10 12-5 1-11 0-15-4l-241-241c-6-6-6-15 0-20l241-242c4-4 9-5 14-4 5 1 9 5 10 10 2 5 0 10-3 14l-232 232 232 231c3 3 4 7 4 12z"/>
<glyph glyph-name="arrow-right" unicode="&#57445;" d="M121 13c0-6 4-11 9-13 6-1 11 0 15 4l242 242c5 5 5 14 0 19l-242 242c-3 4-9 5-13 4-5-1-9-5-11-10-1-5 0-10 4-14l232-231-232-232c-3-3-5-7-4-11z"/>
<glyph glyph-name="checked-circle" unicode="&#57363;" d="M256 0c141 0 256 115 256 256 0 141-115 256-256 256-141 0-256-115-256-256 0-141 115-256 256-256z m0 467c116 0 211-95 211-211 0-116-95-211-211-211-116 0-211 95-211 211 0 116 95 211 211 211z m-45-291c5-5 11-7 16-7 6 0 12 2 16 7l134 127c9 9 10 23 1 32-9 9-23 10-32 1l-119-112-61 61c-9 9-23 9-32 0-10-9-10-23 0-32z"/>
<glyph glyph-name="close-circle" unicode="&#57421;" d="M256 0c141 0 256 115 256 256 0 141-115 256-256 256-141 0-256-115-256-256 0-141 115-256 256-256z m0 467c116 0 211-95 211-211 0-116-95-211-211-211-116 0-211 95-211 211 0 116 95 211 211 211z m-94-305c5-5 10-6 16-6 6 0 12 1 16 6l62 62 62-62c4-5 10-6 16-6 6 0 11 1 16 6 9 9 9 23 0 32l-62 62 62 62c9 9 9 23 0 32-9 9-23 9-32 0l-62-62-62 62c-9 9-23 9-32 0-9-9-9-23 0-32l62-62-62-62c-9-9-9-23 0-32z"/>
<glyph glyph-name="arrow-top" unicode="&#57422;" d="M13 114c-6 0-10 4-12 9-2 6-1 11 3 15l242 242c6 5 14 5 20 0l242-242c3-3 5-9 4-14-2-5-6-8-11-10-5-1-10 0-13 4l-232 232-232-232c-3-3-7-5-11-4z"/>
<glyph glyph-name="closenav" unicode="&#57423;" d="M20 416c-11 0-20-9-20-20 0-11 9-20 20-20l348 0c11 0 20 9 20 20 0 11-9 20-20 20z m0-131c-11 0-20-9-20-20 0-12 9-21 20-21l348 0c11 0 20 9 20 21 0 11-9 20-20 20z m0-131l348 0c11 0 20-9 20-21 0-11-9-20-20-20l-348 0c-11 0-20 9-20 20 0 12 9 21 20 21z m492 115l-66-67 0 134z"/>
<glyph glyph-name="arrow-down" unicode="&#57424;" d="M13 384c-6-1-10-4-12-10-2-5-1-11 3-15l242-241c6-6 14-6 20 0l242 241c3 4 5 9 4 14-2 5-6 9-11 11-5 1-10-1-13-4l-232-232-232 232c-3 3-7 4-11 4z"/>
<glyph glyph-name="handcreditcard" unicode="&#57359;" d="M43 39c-4 0-7 2-9 5-2 3-2 6-2 10l36 207c6 32 25 60 53 76 14 8 29 15 43 22 18 7 35 13 54 17l0 102c0 19 15 34 34 34l210 0c9 0 18-4 24-10 7-6 10-15 10-24l0-285c0-9-3-18-10-24-6-7-15-10-24-10l-53 0 1-2c5-14 2-29-8-40-10-11-24-16-39-12-4-14-15-25-29-28-14-4-29 0-39 11l-4 3c-9-22-24-41-43-54l-4-3c-11-7-20-17-27-28-2-4-7-6-12-6-4 0-8 3-11 7-2 4-2 9 1 13 9 14 20 27 34 36l4 2c27 19 43 50 42 83-1 24 5 48 18 68l32 51c7 11 3 25-7 32-11 7-26 4-32-7l-43-67c-10-16-23-30-38-40-4-3-9-3-13-1-5 2-8 6-8 10 0 5 2 10 6 12 12 9 22 19 30 32-5 4-12 7-19 9-7 2-11 9-9 16 2 7 9 11 16 9 4-1 7-2 10-3l0 87c-15-4-29-8-43-15-14-6-28-12-41-20-21-12-36-33-40-57l-36-207c-1-7-7-11-13-11-1 0-1 0-2 0z m291 66c6 5 7 13 3 20l-20 33c-1 0-1 1-1 1l-14 0c-1-6-1-12-1-18 0-7-1-14-2-21l14-14c6-6 15-6 21-1z m44 26l0 0c7 3 10 11 7 17l-3 11-35 0 12-21c1 0 1-1 1-2 4-6 12-8 18-5z m51 174c-8 0-13 6-13 13l0 35c0 7 5 13 13 13 7 0 13-6 13-13l0-35c0-3-2-7-4-9-3-3-6-4-9-4z m0 89c-8 0-13 6-13 13l0 34c0 8 5 13 13 13 7 0 13-5 13-13l0-34c0-7-6-13-13-13z m0-178c-8 0-13 6-13 13l0 35c0 7 5 13 13 13 7 0 13-6 13-13l0-35c0-7-6-13-13-13z m-114 270l0-165c5-1 11-3 16-6 11-7 19-18 22-31 3-13 1-26-6-37l-32-52c-2-3-4-7-5-10l152 0c5 0 8 3 8 8l0 285c0 4-3 8-8 8z m-71-8l0-210 20 31c6 9 14 16 24 20l0 167-36 0c-5 0-8-4-8-8z"/>
<glyph glyph-name="bankwire" unicode="&#57365;" d="M500 75c6 0 12-6 12-12 0-7-6-12-12-12l-488 0c-6 0-12 5-12 12 0 6 6 12 12 12z m-467 245c-13 0-23 8-26 20-2 12 4 24 15 29l216 106c11 7 25 7 37 0l216-106c10-5 16-17 14-29-3-12-14-20-26-20l-22 0 0-166c0-7-6-12-12-12-7 0-12 5-12 12l0 166-50 0 0-209 77 0c6 0 11-5 11-12 0-6-5-12-11-12l-408 0c-6 0-11 6-11 12 0 7 5 12 11 12l68 0 0 209-50 0 0-166c0-7-6-12-12-12-6 0-12 5-12 12l0 166z m326-209l0 209-215 0 0-209 141 0c0 0 0 0 0 0l0 124c-1 15-14 28-30 29-15 0-28-14-28-29l0-82c0-7-5-12-12-12-6 0-11 5-11 12l0 82c0 29 23 53 52 53 29-2 51-24 52-52l0-124c0 0 0-1 0-1z m-327 237c-1-1-2-2-1-3 0-1 1-2 2-2l446 0c1 0 2 1 2 2 1 1 0 2-1 3l-216 106c-2 1-5 2-8 2-3 0-6-1-8-2z"/>
</font>
</defs>
</svg>
